<svg width="1045" height="1831.0" viewBox="0 0 1045 1831.0" fill="none" xmlns="http://www.w3.org/2000/svg">
<g transform="translate(25.0, 0)">
<path d="M3.20564 101.615C-0.52301 71.2588 4.65867 64.6389 20.0251 38.1934C37.1861 8.65939 59.4815 4.56998 93.0695 10.8066C128.141 17.3186 171.82 37.0789 199.129 14.1316C219.474 -2.96389 248.614 -4.72163 270.866 9.80429L295.74 26.0414C328.607 47.4957 370.967 47.8089 404.147 26.843L410.365 22.9136C446.706 -0.0495418 492.997 -0.132662 529.42 22.6998L531.519 24.0162C567.77 46.7406 613.893 46.4464 649.851 23.2615C685.749 0.115002 731.785 -0.219563 768.016 22.4027L784.596 32.7551C812.485 50.1687 847.898 50.0092 875.629 32.3451L880.914 28.9785C918.468 5.05732 968.625 17.2274 991.599 55.3683C1013.18 91.1911 1012.02 136.708 988.279 171.137C964.608 205.47 963.155 250.46 984.563 286.248L985.799 288.313C1006.29 322.56 1006.66 365.204 986.784 399.807L984.134 404.42C962.719 441.699 963.271 487.674 985.575 524.428L995.016 539.987C1014.48 572.054 1012.34 612.761 989.63 642.615C965.659 674.126 964.734 717.497 987.338 750.002L988.746 752.027C1011.76 785.124 1011.07 829.223 987.019 861.578C964.28 892.173 962.308 933.483 982.03 966.105L992.555 983.512C1013.63 1018.37 1012 1062.42 988.401 1095.63C964.746 1128.91 963.169 1173.08 984.39 1207.97L985.714 1210.15C1006.17 1243.78 1006.33 1285.97 986.118 1319.76L984.473 1322.5C963.063 1358.3 964.163 1403.21 987.301 1437.92C1011.5 1474.21 1011.5 1521.5 987.301 1557.8L984.211 1562.43C962.492 1595.01 958.602 1636.31 973.857 1672.37L995.77 1724.16V1830.34H32.2695V1724.16L11.777 1671.95C-2.57467 1635.39 -1.0458 1594.5 15.9962 1559.11L16.7303 1557.59C34.9075 1519.84 34.9075 1475.87 16.7303 1438.13C-0.699931 1401.93 -1.45035 1359.93 14.6759 1323.14L22.1822 1306.01C36.8804 1272.47 35.1617 1234.01 17.5308 1201.92C-0.268091 1169.52 -1.84109 1130.65 13.2818 1096.92L20.0652 1081.79C36.1633 1045.89 35.1419 1004.29 17.6021 969.063C-0.163875 933.386 -0.729469 891.142 16.3915 855.151L20.7126 846.067C36.2387 813.428 34.8127 775.258 16.8946 743.869C-0.479086 713.433 -2.37725 676.558 11.7795 644.5L21.438 622.628C36.6077 588.275 34.9775 548.828 17.0249 515.844C-0.522002 483.605 -2.49615 445.147 11.6575 411.281L25.9554 377.07C38.305 347.521 36.5492 313.96 21.1837 285.86L7.30199 260.475C-3.71439 240.329 -2.16753 215.644 11.2777 197.031C29.364 171.993 15.4252 138.135 5.00301 109.059C4.13701 106.643 3.51801 104.158 3.20564 101.615Z" fill="#51662E"/>
</g>
</svg>
