<svg width="1045" height="2063.0" viewBox="0 0 1045 2063.0" fill="none" xmlns="http://www.w3.org/2000/svg">
<g transform="translate(6.21, 0)">
<path d="M43.5085 148.456C32.0099 126.871 31.8092 101.024 42.971 79.2627L51.3125 63V0L185.106 0.000275612L263.802 0.000385284L380.898 0.000167847L497.047 0.000385284L619.358 0.000167847L732.661 0.000385284L854.973 0.000167847L1014.31 0V68.5V125L987.602 210.555C975.7 248.678 981.485 290.127 1003.37 323.535C1030.07 364.286 1032.45 416.34 1009.6 459.363L1003.22 471.379C981.853 511.599 983.05 560.057 1006.38 599.173L1009.89 605.064C1032.5 642.977 1032.24 690.296 1009.21 727.956L1004.62 735.461C982.849 771.068 984.145 816.169 1007.93 850.467C1031.5 884.474 1032.99 929.135 1011.73 964.639L1006.2 973.881C983.162 1012.36 983.075 1060.37 1005.97 1098.93L1008.12 1102.54C1031.93 1142.62 1032.28 1192.43 1009.04 1232.84L1003.86 1241.85C982.409 1279.14 984.107 1325.41 1008.23 1361.03C1031.83 1395.88 1034.01 1440.99 1013.87 1477.95L1002.58 1498.68C981.797 1536.83 983.792 1583.33 1007.76 1619.56C1031.7 1655.73 1033.72 1702.16 1013.04 1740.28L1000.21 1763.91C980.988 1799.33 983.596 1842.6 1006.94 1875.46C1031.09 1909.47 1032.97 1954.51 1011.74 1990.41L1005.21 2001.45C982.645 2039.6 941.614 2063 897.289 2063H83.756C40.5036 2063 15.9448 2013.49 42.1173 1979.05C55.7154 1961.16 56.3646 1936.58 43.7298 1918L20.5167 1883.86C-4.92656 1846.43 -4.78045 1797.23 20.8846 1759.95L22.2537 1757.97C48.0842 1720.45 48.9264 1671.12 24.3913 1632.75L20.5339 1626.71C-5.25477 1586.38 -5.52873 1534.81 19.83 1494.2L26.0688 1484.21C49.5264 1446.65 47.8548 1398.62 21.8429 1362.78C-4.41649 1326.6 -5.84835 1278.03 18.234 1240.37L23.2149 1232.58C48.5506 1192.96 48.176 1142.13 22.2591 1102.88L19.3356 1098.46C-5.48459 1060.87 -5.15581 1012.02 20.1681 974.772L23.6611 969.635C48.3076 933.383 47.1504 885.466 20.7828 850.446C-4.78701 816.487 -6.72063 770.262 15.9236 734.285L24.8521 720.1C49.0485 681.657 47.5252 632.384 21.0003 595.509C-4.92398 559.47 -7.01623 511.491 15.6724 473.331L32.4793 445.064C52.1477 411.985 50.2893 370.383 27.7499 339.189L18.4084 326.261C-4.55236 294.484 -0.470985 250.623 27.9587 223.628L31.9177 219.869C51.3935 201.376 56.1355 172.16 43.5085 148.456Z" fill="#51662E"/>
</g>
</svg>
