<svg width="1047" height="1093" viewBox="0 0 1047 1093" fill="none" xmlns="http://www.w3.org/2000/svg">
<path d="M1032.89 218.192L1006.26 174.3C993.333 152.995 992.429 126.498 1003.87 104.36C1028.48 56.7572 993.926 0 940.339 0H133.165C79.7356 0 31.5366 32.0975 10.9369 81.3959L9.74219 84.2551C-4.98417 119.498 -2.93007 159.518 15.3272 193.067C34.0065 227.393 35.7027 268.442 19.9191 304.191L9.86918 326.954C-4.86047 360.316 -2.88543 398.688 15.1916 430.362C33.835 463.028 35.3188 502.748 19.1644 536.714L14.6681 546.167C-3.14593 583.622 -2.55748 627.582 15.9278 664.71C34.1776 701.366 35.2404 744.657 18.4906 782.022L11.4323 797.767C-4.30262 832.868 -2.66593 873.317 15.8536 907.032L27.8602 928.89C38.6346 948.505 39.6849 972.012 30.7028 992.51C9.83669 1040.13 44.7207 1093.5 96.7094 1093.5H917.121C959.502 1093.5 998.767 1071.23 1020.52 1034.86L1023.63 1029.66C1044.66 994.502 1044.5 950.596 1023.21 915.596L1021.83 913.33C999.754 877.022 1001.39 831.058 1026.01 796.417C1050.56 761.86 1052.26 716.026 1030.33 679.747L1019.38 661.631C998.858 627.683 1000.91 584.695 1024.57 552.856C1049.59 519.185 1050.31 473.295 1026.37 438.852L1024.9 436.744C1001.38 402.916 1002.34 357.785 1027.29 324.992C1050.92 293.923 1053.14 251.564 1032.89 218.192Z" fill="#51662E"/>
</svg>
