<svg width="522" height="139" viewBox="0 0 522 139" fill="none" xmlns="http://www.w3.org/2000/svg">
<path d="M8.6529 39.5754L5.50221 51.8752C2.16592 64.8995 2.16592 78.5545 5.50221 91.5787L8.7622 104.305C9.28719 106.355 9.478 108.475 9.32726 110.586C8.33946 124.415 21.5893 134.896 34.8196 130.751L59.1266 123.136C66.2695 120.898 73.9229 120.879 81.077 123.08L109.63 131.865C125.52 136.755 142.538 136.572 158.32 131.343L169.193 127.74C184.974 122.51 201.993 122.328 217.883 127.217L234.299 132.268C249.375 136.907 265.487 136.985 280.608 132.493L301.448 126.302C315.963 121.99 331.404 121.886 345.977 126.002L370.631 132.966C385.457 137.154 401.178 136.972 415.904 132.441L447.162 122.823C453.753 120.795 460.82 120.935 467.325 123.222L483.501 128.91C497.617 133.874 512.218 122.813 511.262 107.881C511.085 105.127 511.457 102.366 512.354 99.7565L515.198 91.4888C519.876 77.8852 519.876 63.1086 515.198 49.505L512.451 41.5176C511.489 38.723 511.089 35.7662 511.271 32.8165C512.242 17.134 497.237 5.31781 482.219 9.93863L466.619 14.7388C460.537 16.6102 454.05 16.7254 447.905 15.0711L413.288 5.7511C400.207 2.22933 386.446 2.08698 373.295 5.3374L343.36 12.7362C330.437 15.9303 316.921 15.8491 304.038 12.5001L277.905 5.70701C264.479 2.21694 250.376 2.27812 236.98 5.88455L215.05 11.7889C200.924 15.5921 186.025 15.449 171.974 11.3752L155.538 6.60969C141.487 2.53588 126.589 2.39279 112.463 6.19598L80.3046 14.8538C73.6181 16.654 66.5725 16.638 59.8943 14.8073L38.2388 8.87104C23.0689 4.7126 8.3173 16.7297 9.32256 32.4271C9.47645 34.8303 9.25046 37.2427 8.6529 39.5754Z" fill="#51662E" stroke="#EA9BB6" stroke-width="6"/>
</svg>
