<svg width="1129" height="1910" viewBox="0 0 1129 1910" fill="none" xmlns="http://www.w3.org/2000/svg">
<g transform="translate(49.255, 0)">
<path d="M1030.04 56.9704L1023.36 47.157C999.522 12.1187 952.938 0.97104 915.821 21.4223L897.546 31.4919C864.194 49.868 823.51 48.7579 791.211 28.5903L781.301 22.4027C745.07 -0.219563 699.034 0.115002 663.136 23.2615C627.178 46.4464 581.055 46.7406 544.804 24.0162L542.704 22.6998C506.281 -0.132662 459.99 -0.0495415 423.65 22.9136L417.431 26.843C384.251 47.8089 341.891 47.4957 309.025 26.0414L284.151 9.80429C261.898 -4.72163 232.759 -2.96389 212.414 14.1316C185.105 37.0789 141.425 17.3186 106.354 10.8066C72.766 4.56998 50.4706 8.65939 33.3096 38.1934C17.9432 64.6389 12.7615 71.2588 16.4902 101.615C16.6772 103.138 16.9926 104.639 17.4216 106.118C26.1801 136.302 39.5038 173.16 16.4851 194.56C-3.44695 213.09 -5.58352 243.907 11.6006 265.01L28.5612 285.839C50.2286 312.449 52.6033 349.883 34.472 379.017L15.7214 409.147C-5.02687 442.486 -2.35917 485.313 22.3661 515.82C47.6251 546.985 49.8107 590.914 27.7701 624.432L15.9302 642.438C-4.73984 673.873 -2.2001 715.173 22.1657 743.838C47.2372 773.334 49.1231 816.073 26.7471 847.662L21.4687 855.113C-2.64014 889.149 -1.72701 935.386 23.1158 968.889C47.8584 1002.26 49.3899 1048.13 26.3241 1082.67L17.9656 1095.19C-3.96434 1128.04 -1.86171 1171.36 23.1463 1201.93C47.935 1232.23 50.2402 1275.1 28.8441 1307.88L19.3998 1322.35C-3.71555 1357.77 -2.70663 1403.75 21.9401 1438.12L27.4168 1445.76C49.7506 1476.9 49.7506 1518.81 27.4168 1549.96L15.4884 1566.59C-4.1435 1593.97 -0.164268 1631.71 24.7457 1654.39C48.0521 1675.61 53.2294 1710.29 37.1365 1737.4L18.607 1768.6C-4.15274 1806.93 -1.75377 1855.16 24.6972 1891.04L37.2729 1908.1C38.0785 1909.2 39.3555 1909.84 40.7133 1909.84H534.054H1003.55C1003.55 1909.84 963.985 1866.82 981.304 1848.34C996.37 1832.27 1015.51 1818.69 1032.08 1808.58C1053.91 1795.27 1069.24 1772.3 1069.24 1746.73C1069.24 1732.12 1064.25 1717.95 1055.11 1706.56L1027.78 1672.51C1000.44 1638.46 999.699 1590.19 1025.97 1555.3C1051.59 1521.29 1051.59 1474.43 1025.97 1440.41L1024.93 1439.02C999.109 1404.74 999.156 1357.5 1025.04 1323.27L1026.38 1321.5C1051.69 1288.03 1051.23 1241.41 1025.65 1208.15C999.788 1174.52 999.997 1127.19 1026.56 1094.1C1051.91 1062.52 1053.63 1018.07 1030.79 984.624L1018.54 966.698C996.525 934.454 998.658 891.496 1023.76 861.592C1050.26 830.029 1051.01 784.213 1025.55 751.804L1024.37 750.297C999.34 718.437 1000.33 673.328 1026.74 642.6C1051.8 613.434 1054.11 571.06 1032.37 539.342L1022.57 525.049C997.829 488.957 998.479 441.201 1024.19 405.796L1027.15 401.72C1052.15 367.299 1051.48 320.288 1025.82 286.358C999.696 251.817 999.809 203.737 1026.42 169.569C1051.94 136.801 1053.4 91.3099 1030.04 56.9704Z" fill="#51662E"/>
</g>
</svg>
