<svg width="1026" height="1831" viewBox="0 0 1026 1831" fill="none" xmlns="http://www.w3.org/2000/svg">
<path d="M3.20564 101.615C-0.52301 71.2583 4.65867 64.6384 20.0251 38.1929C37.1861 8.65891 59.4815 4.56949 93.0695 10.8062C128.141 17.3182 171.82 37.0784 199.129 14.1311C219.474 -2.96438 248.614 -4.72212 270.866 9.80381L295.74 26.0409C328.607 47.4952 370.967 47.8084 404.147 26.8425L410.365 22.9131C446.706 -0.0500301 492.997 -0.13315 529.42 22.6993L531.519 24.0157C567.77 46.7401 613.893 46.446 649.851 23.261C685.749 0.114514 731.785 -0.220051 768.016 22.4022L784.596 32.7546C812.485 50.1682 847.898 50.0087 875.629 32.3447L880.914 28.978C918.468 5.05683 968.625 17.2269 991.599 55.3678C1013.18 91.1906 1012.02 136.708 988.279 171.137C964.608 205.469 963.155 250.46 984.563 286.247L985.799 288.313C1006.29 322.559 1006.66 365.204 986.784 399.807L984.134 404.42C962.719 441.699 963.271 487.674 985.575 524.427L995.016 539.986C1014.48 572.053 1012.34 612.76 989.63 642.614C965.659 674.125 964.734 717.496 987.338 750.001L988.746 752.027C1011.76 785.124 1011.07 829.223 987.019 861.578C964.28 892.172 962.308 933.483 982.03 966.104L992.555 983.512C1013.63 1018.37 1012 1062.42 988.401 1095.62C964.746 1128.91 963.169 1173.08 984.39 1207.97L985.714 1210.15C1006.17 1243.78 1006.33 1285.97 986.118 1319.75L984.473 1322.5C963.063 1358.3 964.163 1403.21 987.301 1437.91L988.968 1440.42C1012.16 1475.2 1012.16 1520.52 988.968 1555.3C965.152 1591.02 965.847 1637.73 990.715 1672.72L1010.08 1699.97C1021.19 1715.61 1026.51 1734.62 1025.13 1753.75C1022 1796.92 986.07 1830.34 942.791 1830.34H61.9378C19.9947 1830.34 -2.77771 1781.28 24.2936 1749.25C37.1324 1734.05 39.5786 1712.63 30.4955 1694.93L13.2951 1661.42C-1.8379 1631.94 -2.28078 1597.06 12.0986 1567.21L17.8341 1555.3C35.3138 1519 35.3138 1476.72 17.8341 1440.42L16.7303 1438.13C-0.699925 1401.93 -1.45035 1359.93 14.6759 1323.13L22.1822 1306.01C36.8804 1272.47 35.1617 1234.01 17.5308 1201.92C-0.268091 1169.52 -1.84109 1130.65 13.2818 1096.92L20.0652 1081.79C36.1633 1045.89 35.1419 1004.29 17.6021 969.063C-0.163875 933.385 -0.729469 891.142 16.3915 855.15L20.7126 846.066C36.2387 813.428 34.8127 775.258 16.8946 743.868C-0.479086 713.433 -2.37725 676.558 11.7795 644.499L21.438 622.627C36.6077 588.275 34.9775 548.827 17.0249 515.843C-0.522002 483.605 -2.49615 445.147 11.6575 411.281L25.9554 377.07C38.305 347.521 36.5492 313.959 21.1837 285.86L7.30199 260.474C-3.71439 240.328 -2.16753 215.643 11.2777 197.03C29.364 171.992 15.4252 138.135 5.00301 109.059C4.13701 106.643 3.51801 104.158 3.20564 101.615Z" fill="#51662E"/>
</svg>
