<svg width="1088" height="626" viewBox="0 0 1088 626" fill="none" xmlns="http://www.w3.org/2000/svg">
<path d="M1047.28 214.254L1034.64 197.498C1015.09 171.6 1018.15 135.144 1041.75 112.872C1067.39 88.6723 1068.47 48.2419 1044.16 22.7065L1023.15 0.64037C1022.76 0.231454 1022.22 0 1021.66 0H589.043H57.5439L82.0468 42.072C83.2521 44.1416 83.0733 46.7371 81.5956 48.6218L41.5216 99.7342C16.7413 131.34 13.5563 174.801 33.464 209.682C49.4899 237.761 50.7653 271.905 36.879 301.102L28.7626 318.167C10.9486 355.622 11.3407 399.187 29.826 436.316L47.7567 472.33C55.2558 487.392 61.6487 503.934 56.4502 519.936C52.8172 531.12 45.2234 545.183 29.7932 560.25C-6.45609 595.646 0.543241 625.5 0.543241 625.5H102.043H625.043H1020.04C1020.04 625.5 1000.29 584.5 1048.79 568.5C1067.44 562.348 1077.58 552.502 1082.99 542.711C1093.31 524.053 1082.23 502.363 1070.53 484.536L1037.4 434.04C1015.29 400.346 1017.45 356.232 1042.76 324.865L1045.55 321.397C1070.64 290.306 1071.35 246.138 1047.28 214.254Z" fill="#51662E"/>
</svg>
