<svg width="1129" height="626" viewBox="0 0 1129 626" fill="none" xmlns="http://www.w3.org/2000/svg">
<g transform="translate(40.925, 0)">
<path d="M1047.28 214.254L1034.33 197.094C1014.96 171.426 1017.99 135.294 1041.38 113.22C1067.09 88.9498 1067.84 48.2889 1043.03 23.0931L1020.3 0H589.043H1.09423C1.09423 0 4.5 19 20 37C27.5368 45.7524 23.1439 73.1829 16.6409 99.058C8.07934 133.124 10.5715 169.571 27.9825 200.077C47.4427 234.174 48.9914 275.635 32.1293 311.088L28.7626 318.167C10.9486 355.622 11.3407 399.187 29.826 436.316L47.7567 472.33C55.2558 487.392 61.6487 503.934 56.4502 519.936C52.8172 531.12 45.2234 545.183 29.7932 560.25C-6.45609 595.646 0.54324 625.5 0.54324 625.5H102.043H625.043H1000.29C1000.29 625.5 1000.29 584.5 1048.79 568.5C1067.44 562.348 1077.58 552.502 1082.99 542.711C1093.31 524.053 1082.23 502.363 1070.53 484.536L1037.4 434.04C1015.29 400.346 1017.45 356.232 1042.76 324.865L1045.55 321.397C1070.64 290.306 1071.35 246.138 1047.28 214.254Z" fill="#51662E"/>
</g>
</svg>
