<svg width="703" height="972" viewBox="0 0 703 972" fill="none" xmlns="http://www.w3.org/2000/svg">
<path d="M179.222 17.2604L178.809 14.7949L179.222 17.2604ZM276.972 13.2689L277.922 10.9563L276.972 13.2689ZM335.622 8.87965L334.807 11.2429L335.622 8.87965ZM355.172 15.6263L355.988 13.263L355.172 15.6263ZM550.672 4.11918L551.228 6.55657L550.672 4.11918ZM570.222 2.73037L570.008 5.22117L570.222 2.73037ZM628.872 8.905L628.563 11.3858L628.872 8.905ZM648.422 12.2562L648.956 9.81377L648.422 12.2562ZM667.972 16.5242L668.506 14.0817L667.972 16.5242ZM683.96 48.495L686.207 47.399L683.96 48.495ZM693.495 68.045L691.248 69.1409L693.495 68.045ZM695.007 87.595L692.635 86.8051L695.007 87.595ZM691.752 97.37L694.124 98.1598L691.752 97.37ZM688.497 107.145L686.125 106.355L688.497 107.145ZM683.331 126.695L685.784 127.175L683.331 126.695ZM681.419 136.47L678.966 135.99L681.419 136.47ZM679.508 146.245L681.962 146.725L679.508 146.245ZM678.325 165.795L680.818 165.609L678.325 165.795ZM679.053 175.57L676.56 175.756L679.053 175.57ZM679.78 185.345L682.273 185.159L679.78 185.345ZM684.664 243.995L682.166 244.113L684.664 243.995ZM685.587 263.545L688.084 263.427L685.587 263.545ZM687.631 283.095L690.099 282.695L687.631 283.095ZM690.797 302.645L688.329 303.045L690.797 302.645ZM689.011 322.195L686.648 321.381L689.011 322.195ZM682.276 341.745L684.639 342.559L682.276 341.745ZM679.34 361.295L681.837 361.185L679.34 361.295ZM680.204 380.845L677.706 380.955L680.204 380.845ZM685.589 400.395L683.359 401.525L685.589 400.395ZM695.495 419.945L697.725 418.815L695.495 419.945ZM696.716 439.495L699.051 440.387V440.387L696.716 439.495ZM692.983 449.27L690.648 448.378L692.983 449.27ZM689.251 459.045L691.586 459.937L689.251 459.045ZM684.384 478.595L681.901 478.307L684.384 478.595ZM683.25 488.37L685.734 488.658L683.25 488.37ZM682.117 498.145L679.633 497.857L682.117 498.145ZM687.561 576.345L685.071 576.128L687.561 576.345ZM685.529 595.895L683.047 595.596L685.529 595.895ZM683.172 615.445L685.654 615.744L683.172 615.445ZM685.666 634.995L683.326 635.874L685.666 634.995ZM693.013 654.545L690.672 655.424L693.013 654.545ZM697.041 674.095L699.54 674.004L697.041 674.095ZM697.752 693.645L695.254 693.736L697.752 693.645ZM693.576 713.195L691.308 712.143L693.576 713.195ZM684.513 732.745L682.245 731.694L684.513 732.745ZM683.609 752.295L685.953 751.425L683.609 752.295ZM690.865 771.845L688.521 772.715L690.865 771.845ZM696.253 791.395L693.792 791.838L696.253 791.395ZM697.982 830.495L700.332 831.349L697.982 830.495ZM690.881 850.045L688.531 849.191L690.881 850.045ZM680.685 908.695L683.185 908.677L680.685 908.695ZM680.829 928.245L678.329 928.263L680.829 928.245ZM677.887 941.032L679.655 942.8L677.887 941.032ZM671.861 947.056L670.093 945.288L671.861 947.056ZM659.072 955.179L660.231 957.395V957.395L659.072 955.179ZM639.522 965.4L638.364 963.184V963.184L639.522 965.4ZM619.972 968.945L619.577 971.414V971.414L619.972 968.945ZM600.422 965.816L600.817 963.347V963.347L600.422 965.816ZM580.872 959.973L581.875 957.683L580.872 959.973ZM571.097 955.696L572.099 953.406V953.406L571.097 955.696ZM561.322 951.418L560.32 953.709L561.322 951.418ZM541.772 949.667L542.398 952.087L541.772 949.667ZM522.222 954.719L521.597 952.298L522.222 954.719ZM502.672 958.536L503 961.014L502.672 958.536ZM483.122 961.117L482.795 958.638L483.122 961.117ZM463.572 957.528L464.689 955.292V955.292L463.572 957.528ZM444.022 947.77L445.139 945.533V945.533L444.022 947.77ZM424.472 948.135L423.29 945.932L424.472 948.135ZM414.697 953.379L413.515 951.176L414.697 953.379ZM404.922 958.624L406.104 960.827L404.922 958.624ZM385.372 959.977L384.448 962.299L385.372 959.977ZM375.597 956.085L376.522 953.762L375.597 956.085ZM365.822 952.193L366.747 949.87L365.822 952.193ZM346.272 952.776L347.313 955.049L346.272 952.776ZM326.722 961.725L325.682 959.452L326.722 961.725ZM307.172 965.971L307.231 963.472L307.172 965.971ZM287.622 965.514L287.564 968.013L287.622 965.514ZM268.072 963.874L267.715 966.348L268.072 963.874ZM248.522 961.05L248.88 958.576L248.522 961.05ZM228.972 959.261L228.876 961.76L228.972 959.261ZM219.197 958.884L219.101 961.382L219.197 958.884ZM209.422 958.507L209.519 956.009L209.422 958.507ZM189.872 954.561L189.015 956.909L189.872 954.561ZM170.322 947.424L171.18 945.075L170.322 947.424ZM150.772 948.021L151.752 950.321L150.772 948.021ZM140.997 952.187L140.017 949.888L140.997 952.187ZM131.222 956.354L130.242 954.054L131.222 956.354ZM111.672 958.419L111.147 960.863L111.672 958.419ZM92.1222 954.218L92.6474 951.774L92.1222 954.218ZM72.5722 956.758L73.6443 959.016L72.5722 956.758ZM62.7972 961.398L61.7252 959.139L62.7972 961.398ZM53.0222 966.038L54.0943 968.297V968.297L53.0222 966.038ZM36.2836 965.014L37.8612 963.074L36.2836 965.014ZM29.3199 959.349L27.7423 961.288L29.3199 959.349ZM22.3562 953.684L20.7786 955.624L22.3562 953.684ZM14.6645 899.145L17.0241 899.971L14.6645 899.145ZM21.5083 879.595L19.1487 878.769L21.5083 879.595ZM26.3507 840.495L23.8537 840.374L26.3507 840.495ZM25.4657 820.945L22.9895 821.289L25.4657 820.945ZM22.7487 801.395L25.2249 801.051L22.7487 801.395ZM19.8817 762.295L17.385 762.423L19.8817 762.295ZM19.3982 742.745L16.8982 742.74V742.74L19.3982 742.745ZM6.21566 625.445L8.54676 626.348L6.21566 625.445ZM13.7915 605.895L11.4604 604.991L13.7915 605.895ZM16.5562 586.345L14.0698 586.605L16.5562 586.345ZM16.4042 547.245L18.7998 547.96L16.4042 547.245ZM22.5119 429.945L20.0457 430.354L22.5119 429.945ZM13.4224 390.845L11.1275 391.836L13.4224 390.845ZM4.97423 371.295L7.26912 370.303L4.97423 371.295ZM4.24477 351.745L1.89069 350.903L4.24477 351.745ZM11.234 332.195L13.5881 333.036L11.234 332.195ZM13.0397 312.645L10.5762 313.07L13.0397 312.645ZM7.70942 234.445L5.43117 233.415L7.70942 234.445ZM16.3158 195.345L14.0576 196.417L16.3158 195.345ZM7.02947 175.795L9.28766 174.722L7.02947 175.795ZM7.87525 97.5947L5.41113 97.1727L7.87525 97.5947ZM11.4135 78.0448L8.95772 77.5765V77.5765L11.4135 78.0448ZM32.5974 5.86571L33.2231 8.28614L42.9981 5.75903L42.3724 3.33861L41.7466 0.918187L31.9716 3.44529L32.5974 5.86571ZM42.3724 3.33861L42.9981 5.75903C48.8277 4.25192 54.6909 5.07446 60.7127 8.40384L61.9224 6.21597L63.132 4.0281C56.1205 0.151525 48.9504 -0.944175 41.7466 0.918187L42.3724 3.33861ZM61.9224 6.21597L60.7127 8.40384L70.4877 13.8083L71.6974 11.6204L72.907 9.43256L63.132 4.0281L61.9224 6.21597ZM71.6974 11.6204L70.4877 13.8083L80.2627 19.2128L81.4724 17.0249L82.682 14.837L72.907 9.43256L71.6974 11.6204ZM81.4724 17.0249L80.2627 19.2128C87.3095 23.1088 94.5215 24.0483 101.748 21.855L101.022 19.4628L100.296 17.0705C94.4899 18.8327 88.6686 18.1469 82.682 14.837L81.4724 17.0249ZM101.022 19.4628L101.748 21.855L111.523 18.8884L110.797 16.4962L110.071 14.1039L100.296 17.0705L101.022 19.4628ZM110.797 16.4962L111.523 18.8884L121.298 15.9218L120.572 13.5296L119.846 11.1373L110.071 14.1039L110.797 16.4962ZM120.572 13.5296L121.298 15.9218C127.42 14.0641 133.507 13.793 139.601 15.0923L140.122 12.6472L140.644 10.2022C133.704 8.72251 126.758 9.03963 119.846 11.1373L120.572 13.5296ZM140.122 12.6472L139.601 15.0923L149.376 17.1765L149.897 14.7314L150.419 12.2864L140.644 10.2022L140.122 12.6472ZM149.897 14.7314L149.376 17.1765L159.151 19.2607L159.672 16.8157L160.194 14.3706L150.419 12.2864L149.897 14.7314ZM159.672 16.8157L159.151 19.2607C165.973 20.7152 172.806 20.8714 179.636 19.726L179.222 17.2604L178.809 14.7949C172.605 15.8354 166.405 15.6951 160.194 14.3706L159.672 16.8157ZM179.222 17.2604L179.636 19.726L189.411 18.0865L188.997 15.6209L188.584 13.1554L178.809 14.7949L179.222 17.2604ZM188.997 15.6209L189.411 18.0865L199.186 16.447L198.772 13.9814L198.359 11.5159L188.584 13.1554L188.997 15.6209ZM198.772 13.9814L199.186 16.447C205.796 15.3384 212.403 13.8451 219.006 11.968L218.322 9.5633L217.639 7.15857C211.209 8.9864 204.782 10.4385 198.359 11.5159L198.772 13.9814ZM218.322 9.5633L219.006 11.968L228.781 9.18937L228.097 6.78464L227.414 4.37991L217.639 7.15857L218.322 9.5633ZM228.097 6.78464L228.781 9.18937L238.556 6.41071L237.872 4.00598L237.189 1.60125L227.414 4.37991L228.097 6.78464ZM237.872 4.00598L238.556 6.41071C244.511 4.71804 250.452 5.08173 256.473 7.5538L257.422 5.24118L258.372 2.92856C251.359 0.0488243 244.268 -0.41095 237.189 1.60125L237.872 4.00598ZM257.422 5.24118L256.473 7.5538L266.248 11.5677L267.197 9.25504L268.147 6.94242L258.372 2.92856L257.422 5.24118ZM267.197 9.25504L266.248 11.5677L276.023 15.5815L276.972 13.2689L277.922 10.9563L268.147 6.94242L267.197 9.25504ZM276.972 13.2689L276.023 15.5815C283.05 18.4672 290.156 18.8669 297.243 16.7324L296.522 14.3386L295.801 11.9449C289.855 13.7359 283.928 13.4224 277.922 10.9563L276.972 13.2689ZM296.522 14.3386L297.243 16.7324L307.018 13.7883L306.297 11.3945L305.576 9.00077L295.801 11.9449L296.522 14.3386ZM306.297 11.3945L307.018 13.7883L316.793 10.8442L316.072 8.45045L315.351 6.05667L305.576 9.00077L306.297 11.3945ZM316.072 8.45045L316.793 10.8442C322.8 9.03498 328.78 9.1629 334.807 11.2429L335.622 8.87965L336.438 6.51642C329.432 4.09867 322.378 3.94044 315.351 6.05667L316.072 8.45045ZM335.622 8.87965L334.807 11.2429L344.582 14.6162L345.397 12.253L346.213 9.88972L336.438 6.51642L335.622 8.87965ZM345.397 12.253L344.582 14.6162L354.357 17.9895L355.172 15.6263L355.988 13.263L346.213 9.88972L345.397 12.253ZM355.172 15.6263L354.357 17.9895C361.514 20.4595 368.701 20.0106 375.777 16.7181L374.722 14.4515L373.668 12.1848C367.711 14.9565 361.864 15.2908 355.988 13.263L355.172 15.6263ZM374.722 14.4515L375.777 16.7181L385.552 12.17L384.497 9.90333L383.443 7.63667L373.668 12.1848L374.722 14.4515ZM384.497 9.90333L385.552 12.17L395.327 7.62187L394.272 5.35521L393.218 3.08855L383.443 7.63667L384.497 9.90333ZM394.272 5.35521L395.327 7.62187C401.241 4.87033 407.045 4.67585 412.906 6.98596L413.822 4.66012L414.739 2.33428C407.566 -0.492992 400.337 -0.224075 393.218 3.08855L394.272 5.35521ZM413.822 4.66012L412.906 6.98596L422.681 10.839L423.597 8.51315L424.514 6.18732L414.739 2.33428L413.822 4.66012ZM423.597 8.51315L422.681 10.839L432.456 14.692L433.372 12.3662L434.289 10.0404L424.514 6.18732L423.597 8.51315ZM433.372 12.3662L432.456 14.692C439.301 17.3903 446.199 18.4828 453.122 17.9282L452.922 15.4362L452.723 12.9441C446.613 13.4336 440.477 12.4795 434.289 10.0404L433.372 12.3662ZM452.922 15.4362L453.122 17.9282L462.897 17.1451L462.697 14.6531L462.498 12.1611L452.723 12.9441L452.922 15.4362ZM462.697 14.6531L462.897 17.1451L472.672 16.362L472.472 13.87L472.273 11.378L462.498 12.1611L462.697 14.6531ZM472.472 13.87L472.672 16.362C479.171 15.8414 485.669 15.3918 492.168 15.0131L492.022 12.5173L491.877 10.0215C485.342 10.4024 478.807 10.8545 472.273 11.378L472.472 13.87ZM492.022 12.5173L492.168 15.0131L501.943 14.4434L501.797 11.9477L501.652 9.45191L491.877 10.0215L492.022 12.5173ZM501.797 11.9477L501.943 14.4434L511.718 13.8738L511.572 11.378L511.427 8.88227L501.652 9.45191L501.797 11.9477ZM511.572 11.378L511.718 13.8738C518.376 13.4858 525.03 12.5326 531.678 11.0161L531.122 8.57866L530.566 6.14127C524.181 7.59771 517.802 8.51076 511.427 8.88227L511.572 11.378ZM531.122 8.57866L531.678 11.0161L541.453 8.78631L540.897 6.34892L540.341 3.91153L530.566 6.14127L531.122 8.57866ZM540.897 6.34892L541.453 8.78631L551.228 6.55657L550.672 4.11918L550.116 1.68179L540.341 3.91153L540.897 6.34892ZM550.672 4.11918L551.228 6.55657C557.498 5.12638 563.755 4.68323 570.008 5.22117L570.222 2.73037L570.437 0.239572C563.656 -0.34373 556.88 0.138988 550.116 1.68179L550.672 4.11918ZM570.222 2.73037L570.008 5.22117L579.783 6.0621L579.997 3.5713L580.212 1.0805L570.437 0.239572L570.222 2.73037ZM579.997 3.5713L579.783 6.0621L589.558 6.90304L589.772 4.41224L589.987 1.92144L580.212 1.0805L579.997 3.5713ZM589.772 4.41224L589.558 6.90304C596.043 7.46093 602.528 8.14367 609.013 8.95128L609.322 6.47045L609.631 3.98961C603.083 3.17418 596.535 2.48479 589.987 1.92144L589.772 4.41224ZM609.322 6.47045L609.013 8.95128L618.788 10.1686L619.097 7.68773L619.406 5.20689L609.631 3.98961L609.322 6.47045ZM619.097 7.68773L618.788 10.1686L628.563 11.3858L628.872 8.905L629.181 6.42417L619.406 5.20689L619.097 7.68773ZM628.872 8.905L628.563 11.3858C635.004 12.1878 641.445 13.292 647.889 14.6987L648.422 12.2562L648.956 9.81377C642.366 8.3752 635.774 7.24521 629.181 6.42417L628.872 8.905ZM648.422 12.2562L647.889 14.6987L657.664 16.8327L658.197 14.3902L658.731 11.9477L648.956 9.81377L648.422 12.2562ZM658.197 14.3902L657.664 16.8327L667.439 18.9666L667.972 16.5242L668.506 14.0817L658.731 11.9477L658.197 14.3902ZM667.972 16.5242L667.439 18.9666C670.547 19.6452 672.653 20.5044 673.953 21.4214C675.187 22.2916 675.561 23.1012 675.615 23.8532L678.109 23.6736L680.602 23.494C680.415 20.9024 678.98 18.8485 676.835 17.3356C674.756 15.8694 671.914 14.8258 668.506 14.0817L667.972 16.5242ZM678.109 23.6736L675.615 23.8532L675.976 28.8686L678.47 28.689L680.963 28.5095L680.602 23.494L678.109 23.6736ZM678.47 28.689L675.976 28.8686L676.337 33.8841L678.831 33.7045L681.324 33.5249L680.963 28.5095L678.47 28.689ZM678.831 33.7045L676.337 33.8841C676.615 37.7421 678.519 43.0433 681.713 49.5909L683.96 48.495L686.207 47.399C683.043 40.9132 681.528 36.3542 681.324 33.5249L678.831 33.7045ZM683.96 48.495L681.713 49.5909L686.48 59.3659L688.727 58.27L690.974 57.174L686.207 47.399L683.96 48.495ZM688.727 58.27L686.48 59.3659L691.248 69.1409L693.495 68.045L695.742 66.949L690.974 57.174L688.727 58.27ZM693.495 68.045L691.248 69.1409C694.157 75.1057 694.586 80.9464 692.635 86.8051L695.007 87.595L697.379 88.3848C699.768 81.2102 699.189 74.0175 695.742 66.949L693.495 68.045ZM695.007 87.595L692.635 86.8051L689.38 96.5801L691.752 97.37L694.124 98.1598L697.379 88.3848L695.007 87.595ZM691.752 97.37L689.38 96.5801L686.125 106.355L688.497 107.145L690.869 107.935L694.124 98.1598L691.752 97.37ZM688.497 107.145L686.125 106.355C683.922 112.97 682.172 119.59 680.877 126.215L683.331 126.695L685.784 127.175C687.037 120.767 688.731 114.353 690.869 107.935L688.497 107.145ZM683.331 126.695L680.877 126.215L678.966 135.99L681.419 136.47L683.873 136.95L685.784 127.175L683.331 126.695ZM681.419 136.47L678.966 135.99L677.055 145.765L679.508 146.245L681.962 146.725L683.873 136.95L681.419 136.47ZM679.508 146.245L677.055 145.765C675.739 152.497 675.33 159.238 675.832 165.981L678.325 165.795L680.818 165.609C680.35 159.319 680.73 153.026 681.962 146.725L679.508 146.245ZM678.325 165.795L675.832 165.981L676.56 175.756L679.053 175.57L681.546 175.384L680.818 165.609L678.325 165.795ZM679.053 175.57L676.56 175.756L677.287 185.531L679.78 185.345L682.273 185.159L681.546 175.384L679.053 175.57ZM679.78 185.345L677.287 185.531C677.774 192.064 678.325 198.597 678.943 205.13L681.431 204.895L683.92 204.66C683.306 198.16 682.757 191.659 682.273 185.159L679.78 185.345ZM681.431 204.895L678.943 205.13L679.866 214.905L682.355 214.67L684.844 214.435L683.92 204.66L681.431 204.895ZM682.355 214.67L679.866 214.905L680.789 224.68L683.278 224.445L685.767 224.21L684.844 214.435L682.355 214.67ZM683.278 224.445L680.789 224.68C681.401 231.158 681.86 237.635 682.166 244.113L684.664 243.995L687.161 243.877C686.851 237.321 686.387 230.765 685.767 224.21L683.278 224.445ZM684.664 243.995L682.166 244.113L682.628 253.888L685.125 253.77L687.622 253.652L687.161 243.877L684.664 243.995ZM685.125 253.77L682.628 253.888L683.09 263.663L685.587 263.545L688.084 263.427L687.622 253.652L685.125 253.77ZM685.587 263.545L683.09 263.663C683.402 270.275 684.093 276.886 685.163 283.495L687.631 283.095L690.099 282.695C689.059 276.271 688.387 269.848 688.084 263.427L685.587 263.545ZM687.631 283.095L685.163 283.495L686.746 293.27L689.214 292.87L691.682 292.47L690.099 282.695L687.631 283.095ZM689.214 292.87L686.746 293.27L688.329 303.045L690.797 302.645L693.264 302.245L691.682 292.47L689.214 292.87ZM690.797 302.645L688.329 303.045C689.315 309.136 688.765 315.236 686.648 321.381L689.011 322.195L691.375 323.009C693.748 316.121 694.388 309.187 693.264 302.245L690.797 302.645ZM689.011 322.195L686.648 321.381L683.28 331.156L685.643 331.97L688.007 332.784L691.375 323.009L689.011 322.195ZM685.643 331.97L683.28 331.156L679.912 340.931L682.276 341.745L684.639 342.559L688.007 332.784L685.643 331.97ZM682.276 341.745L679.912 340.931C677.57 347.727 676.54 354.557 676.842 361.405L679.34 361.295L681.837 361.185C681.564 354.999 682.491 348.796 684.639 342.559L682.276 341.745ZM679.34 361.295L676.842 361.405L677.274 371.18L679.772 371.07L682.269 370.96L681.837 361.185L679.34 361.295ZM679.772 371.07L677.274 371.18L677.706 380.955L680.204 380.845L682.702 380.735L682.269 370.96L679.772 371.07ZM680.204 380.845L677.706 380.955C678.012 387.867 679.916 394.729 683.359 401.525L685.589 400.395L687.819 399.265C684.658 393.027 682.972 386.856 682.702 380.735L680.204 380.845ZM685.589 400.395L683.359 401.525L688.312 411.3L690.542 410.17L692.772 409.04L687.819 399.265L685.589 400.395ZM690.542 410.17L688.312 411.3L693.265 421.075L695.495 419.945L697.725 418.815L692.772 409.04L690.542 410.17ZM695.495 419.945L693.265 421.075C696.266 426.996 696.604 432.78 694.38 438.603L696.716 439.495L699.051 440.387C701.804 433.177 701.329 425.927 697.725 418.815L695.495 419.945ZM696.716 439.495L694.38 438.603L690.648 448.378L692.983 449.27L695.319 450.162L699.051 440.387L696.716 439.495ZM692.983 449.27L690.648 448.378L686.915 458.153L689.251 459.045L691.586 459.937L695.319 450.162L692.983 449.27ZM689.251 459.045L686.915 458.153C684.357 464.852 682.682 471.571 681.901 478.307L684.384 478.595L686.868 478.883C687.598 472.586 689.167 466.271 691.586 459.937L689.251 459.045ZM684.384 478.595L681.901 478.307L680.767 488.082L683.25 488.37L685.734 488.658L686.868 478.883L684.384 478.595ZM683.25 488.37L680.767 488.082L679.633 497.857L682.117 498.145L684.6 498.433L685.734 488.658L683.25 488.37ZM682.117 498.145L679.633 497.857C678.844 504.666 679.246 511.472 680.833 518.264L683.267 517.695L685.702 517.126C684.243 510.884 683.878 504.658 684.6 498.433L682.117 498.145ZM683.267 517.695L680.833 518.264L683.117 528.039L685.552 527.47L687.986 526.901L685.702 517.126L683.267 517.695ZM685.552 527.47L683.117 528.039L685.402 537.814L687.836 537.245L690.271 536.676L687.986 526.901L685.552 527.47ZM687.836 537.245L685.402 537.814C686.866 544.079 687.322 550.331 686.777 556.578L689.268 556.795L691.758 557.012C692.351 550.226 691.853 543.444 690.271 536.676L687.836 537.245ZM689.268 556.795L686.777 556.578L685.924 566.353L688.414 566.57L690.905 566.787L691.758 557.012L689.268 556.795ZM688.414 566.57L685.924 566.353L685.071 576.128L687.561 576.345L690.052 576.562L690.905 566.787L688.414 566.57ZM687.561 576.345L685.071 576.128C684.504 582.617 683.83 589.106 683.047 595.596L685.529 595.895L688.011 596.194C688.8 589.65 689.481 583.107 690.052 576.562L687.561 576.345ZM685.529 595.895L683.047 595.596L681.869 605.371L684.351 605.67L686.833 605.969L688.011 596.194L685.529 595.895ZM684.351 605.67L681.869 605.371L680.69 615.146L683.172 615.445L685.654 615.744L686.833 605.969L684.351 605.67ZM683.172 615.445L680.69 615.146C679.853 622.085 680.745 629.005 683.326 635.874L685.666 634.995L688.007 634.116C685.69 627.951 684.919 621.838 685.654 615.744L683.172 615.445ZM685.666 634.995L683.326 635.874L686.999 645.649L689.34 644.77L691.68 643.891L688.007 634.116L685.666 634.995ZM689.34 644.77L686.999 645.649L690.672 655.424L693.013 654.545L695.353 653.666L691.68 643.891L689.34 644.77ZM693.013 654.545L690.672 655.424C693.033 661.706 694.316 667.957 694.543 674.186L697.041 674.095L699.54 674.004C699.292 667.2 697.89 660.418 695.353 653.666L693.013 654.545ZM697.041 674.095L694.543 674.186L694.899 683.961L697.397 683.87L699.895 683.779L699.54 674.004L697.041 674.095ZM697.397 683.87L694.899 683.961L695.254 693.736L697.752 693.645L700.251 693.554L699.895 683.779L697.397 683.87ZM697.752 693.645L695.254 693.736C695.475 699.82 694.181 705.947 691.308 712.143L693.576 713.195L695.845 714.246C699.014 707.409 700.504 700.503 700.251 693.554L697.752 693.645ZM693.576 713.195L691.308 712.143L686.777 721.919L689.045 722.97L691.313 724.021L695.845 714.246L693.576 713.195ZM689.045 722.97L686.777 721.919L682.245 731.694L684.513 732.745L686.781 733.797L691.313 724.021L689.045 722.97ZM684.513 732.745L682.245 731.694C678.954 738.792 678.607 746 681.266 753.165L683.609 752.295L685.953 751.425C683.775 745.556 684.03 739.731 686.781 733.797L684.513 732.745ZM683.609 752.295L681.266 753.165L684.893 762.94L687.237 762.07L689.581 761.2L685.953 751.425L683.609 752.295ZM687.237 762.07L684.893 762.94L688.521 772.715L690.865 771.845L693.209 770.975L689.581 761.2L687.237 762.07ZM690.865 771.845L688.521 772.715C690.891 779.1 692.646 785.474 693.792 791.838L696.253 791.395L698.713 790.952C697.512 784.283 695.676 777.623 693.209 770.975L690.865 771.845ZM696.253 791.395L693.792 791.838L695.552 801.613L698.013 801.17L700.473 800.727L698.713 790.952L696.253 791.395ZM698.013 801.17L695.552 801.613L697.312 811.388L699.773 810.945L702.233 810.502L700.473 800.727L698.013 801.17ZM699.773 810.945L697.312 811.388C698.404 817.449 697.856 823.519 695.633 829.641L697.982 830.495L700.332 831.349C702.843 824.437 703.489 817.474 702.233 810.502L699.773 810.945ZM697.982 830.495L695.633 829.641L692.082 839.417L694.432 840.27L696.781 841.124L700.332 831.349L697.982 830.495ZM694.432 840.27L692.082 839.417L688.531 849.191L690.881 850.045L693.231 850.899L696.781 841.124L694.432 840.27ZM690.881 850.045L688.531 849.191C686.116 855.841 684.333 862.502 683.187 869.172L685.651 869.595L688.115 870.018C689.208 863.655 690.912 857.282 693.231 850.899L690.881 850.045ZM685.651 869.595L683.187 869.172L681.508 878.947L683.971 879.37L686.435 879.793L688.115 870.018L685.651 869.595ZM683.971 879.37L681.508 878.947L679.828 888.722L682.292 889.145L684.756 889.568L686.435 879.793L683.971 879.37ZM682.292 889.145L679.828 888.722C678.684 895.382 678.136 902.047 678.185 908.713L680.685 908.695L683.185 908.677C683.138 902.31 683.661 895.941 684.756 889.568L682.292 889.145ZM680.685 908.695L678.185 908.713L678.257 918.488L680.757 918.47L683.256 918.452L683.185 908.677L680.685 908.695ZM680.757 918.47L678.257 918.488L678.329 928.263L680.829 928.245L683.328 928.227L683.256 918.452L680.757 918.47ZM680.829 928.245L678.329 928.263C678.352 931.412 678.124 933.896 677.693 935.769C677.255 937.671 676.659 938.725 676.12 939.264L677.887 941.032L679.655 942.8C681.125 941.331 682.023 939.25 682.566 936.89C683.115 934.501 683.353 931.595 683.328 928.227L680.829 928.245ZM677.887 941.032L676.12 939.264L673.106 942.276L674.874 944.044L676.641 945.812L679.655 942.8L677.887 941.032ZM674.874 944.044L673.106 942.276L670.093 945.288L671.861 947.056L673.628 948.825L676.641 945.812L674.874 944.044ZM671.861 947.056L670.093 945.288C668.389 946.992 664.453 949.545 657.914 952.964L659.072 955.179L660.231 957.395C666.725 953.999 671.314 951.137 673.628 948.825L671.861 947.056ZM659.072 955.179L657.914 952.964L648.139 958.074L649.297 960.289L650.456 962.505L660.231 957.395L659.072 955.179ZM649.297 960.289L648.139 958.074L638.364 963.184L639.522 965.4L640.681 967.615L650.456 962.505L649.297 960.289ZM639.522 965.4L638.364 963.184C632.267 966.372 626.292 967.425 620.367 966.477L619.972 968.945L619.577 971.414C626.686 972.552 633.744 971.242 640.681 967.615L639.522 965.4ZM619.972 968.945L620.367 966.477L610.592 964.912L610.197 967.38L609.802 969.849L619.577 971.414L619.972 968.945ZM610.197 967.38L610.592 964.912L600.817 963.347L600.422 965.816L600.027 968.284L609.802 969.849L610.197 967.38ZM600.422 965.816L600.817 963.347C594.525 962.34 588.212 960.456 581.875 957.683L580.872 959.973L579.87 962.264C586.566 965.194 593.286 967.205 600.027 968.284L600.422 965.816ZM580.872 959.973L581.875 957.683L572.099 953.406L571.097 955.696L570.095 957.986L579.87 962.264L580.872 959.973ZM571.097 955.696L572.099 953.406L562.325 949.128L561.322 951.418L560.32 953.709L570.095 957.986L571.097 955.696ZM561.322 951.418L562.325 949.128C555.326 946.066 548.237 945.414 541.147 947.246L541.772 949.667L542.398 952.087C548.34 950.552 554.285 951.068 560.32 953.709L561.322 951.418ZM541.772 949.667L541.147 947.246L531.372 949.772L531.997 952.193L532.623 954.613L542.398 952.087L541.772 949.667ZM531.997 952.193L531.372 949.772L521.597 952.298L522.222 954.719L522.848 957.139L532.623 954.613L531.997 952.193ZM522.222 954.719L521.597 952.298C515.176 953.958 508.759 955.21 502.345 956.057L502.672 958.536L503 961.014C509.619 960.14 516.235 958.848 522.848 957.139L522.222 954.719ZM502.672 958.536L502.345 956.057L492.57 957.348L492.897 959.826L493.225 962.305L503 961.014L502.672 958.536ZM492.897 959.826L492.57 957.348L482.795 958.638L483.122 961.117L483.449 963.595L493.225 962.305L492.897 959.826ZM483.122 961.117L482.795 958.638C476.826 959.427 470.809 958.347 464.689 955.292L463.572 957.528L462.456 959.765C469.369 963.216 476.385 964.528 483.449 963.595L483.122 961.117ZM463.572 957.528L464.689 955.292L454.914 950.412L453.797 952.649L452.681 954.886L462.456 959.765L463.572 957.528ZM453.797 952.649L454.914 950.412L445.139 945.533L444.022 947.77L442.906 950.007L452.681 954.886L453.797 952.649ZM444.022 947.77L445.139 945.533C437.883 941.911 430.509 942.059 423.29 945.932L424.472 948.135L425.654 950.338C431.469 947.218 437.128 947.123 442.906 950.007L444.022 947.77ZM424.472 948.135L423.29 945.932L413.515 951.176L414.697 953.379L415.879 955.582L425.654 950.338L424.472 948.135ZM414.697 953.379L413.515 951.176L403.74 956.421L404.922 958.624L406.104 960.827L415.879 955.582L414.697 953.379ZM404.922 958.624L403.74 956.421C397.833 959.59 392.087 959.959 386.297 957.654L385.372 959.977L384.448 962.299C391.691 965.183 398.978 964.65 406.104 960.827L404.922 958.624ZM385.372 959.977L386.297 957.654L376.522 953.762L375.597 956.085L374.673 958.407L384.448 962.299L385.372 959.977ZM375.597 956.085L376.522 953.762L366.747 949.87L365.822 952.193L364.898 954.516L374.673 958.407L375.597 956.085ZM365.822 952.193L366.747 949.87C359.581 947.017 352.354 947.242 345.232 950.503L346.272 952.776L347.313 955.049C353.224 952.343 359.031 952.18 364.898 954.516L365.822 952.193ZM346.272 952.776L345.232 950.503L335.457 954.977L336.497 957.25L337.538 959.524L347.313 955.049L346.272 952.776ZM336.497 957.25L335.457 954.977L325.682 959.452L326.722 961.725L327.763 963.998L337.538 959.524L336.497 957.25ZM326.722 961.725L325.682 959.452C319.475 962.293 313.332 963.614 307.231 963.472L307.172 965.971L307.114 968.47C314.046 968.632 320.936 967.123 327.763 963.998L326.722 961.725ZM307.172 965.971L307.231 963.472L297.456 963.243L297.397 965.743L297.339 968.242L307.114 968.47L307.172 965.971ZM297.397 965.743L297.456 963.243L287.681 963.015L287.622 965.514L287.564 968.013L297.339 968.242L297.397 965.743ZM287.622 965.514L287.681 963.015C281.265 962.865 274.848 962.327 268.43 961.4L268.072 963.874L267.715 966.348C274.33 967.304 280.946 967.859 287.564 968.013L287.622 965.514ZM268.072 963.874L268.43 961.4L258.655 959.988L258.297 962.462L257.94 964.937L267.715 966.348L268.072 963.874ZM258.297 962.462L258.655 959.988L248.88 958.576L248.522 961.05L248.165 963.525L257.94 964.937L258.297 962.462ZM248.522 961.05L248.88 958.576C242.277 957.623 235.674 957.018 229.069 956.763L228.972 959.261L228.876 961.76C235.304 962.008 241.734 962.596 248.165 963.525L248.522 961.05ZM228.972 959.261L229.069 956.763L219.294 956.386L219.197 958.884L219.101 961.382L228.876 961.76L228.972 959.261ZM219.197 958.884L219.294 956.386L209.519 956.009L209.422 958.507L209.326 961.005L219.101 961.382L219.197 958.884ZM209.422 958.507L209.519 956.009C203.278 955.768 197.018 954.508 190.73 952.212L189.872 954.561L189.015 956.909C195.76 959.372 202.533 960.743 209.326 961.005L209.422 958.507ZM189.872 954.561L190.73 952.212L180.955 948.644L180.097 950.992L179.24 953.341L189.015 956.909L189.872 954.561ZM180.097 950.992L180.955 948.644L171.18 945.075L170.322 947.424L169.465 949.772L179.24 953.341L180.097 950.992ZM170.322 947.424L171.18 945.075C164.053 942.473 156.879 942.701 149.792 945.721L150.772 948.021L151.752 950.321C157.699 947.787 163.559 947.616 169.465 949.772L170.322 947.424ZM150.772 948.021L149.792 945.721L140.017 949.888L140.997 952.187L141.977 954.487L151.752 950.321L150.772 948.021ZM140.997 952.187L140.017 949.888L130.242 954.054L131.222 956.354L132.202 958.653L141.977 954.487L140.997 952.187ZM131.222 956.354L130.242 954.054C124.169 956.642 118.177 957.26 112.197 955.975L111.672 958.419L111.147 960.863C118.201 962.379 125.242 961.62 132.202 958.653L131.222 956.354ZM111.672 958.419L112.197 955.975L102.422 953.874L101.897 956.319L101.372 958.763L111.147 960.863L111.672 958.419ZM101.897 956.319L102.422 953.874L92.6474 951.774L92.1222 954.218L91.597 956.662L101.372 958.763L101.897 956.319ZM92.1222 954.218L92.6474 951.774C85.5471 950.248 78.4707 951.19 71.5001 954.499L72.5722 956.758L73.6443 959.016C79.707 956.138 85.6639 955.387 91.597 956.662L92.1222 954.218ZM72.5722 956.758L71.5001 954.499L61.7252 959.139L62.7972 961.398L63.8693 963.656L73.6443 959.016L72.5722 956.758ZM62.7972 961.398L61.7252 959.139L51.9502 963.78L53.0222 966.038L54.0943 968.297L63.8693 963.656L62.7972 961.398ZM53.0222 966.038L51.9502 963.78C48.9655 965.196 46.3658 965.745 44.1028 965.607C41.872 965.47 39.8074 964.657 37.8612 963.074L36.2836 965.014L34.706 966.953C37.4022 969.146 40.4486 970.392 43.7974 970.597C47.1139 970.8 50.5623 969.973 54.0943 968.297L53.0222 966.038ZM36.2836 965.014L37.8612 963.074L30.8975 957.41L29.3199 959.349L27.7423 961.288L34.706 966.953L36.2836 965.014ZM29.3199 959.349L30.8975 957.41L23.9338 951.745L22.3562 953.684L20.7786 955.624L27.7423 961.288L29.3199 959.349ZM22.3562 953.684L23.9338 951.745C19.8546 948.427 17.4703 943.91 16.8411 937.981L14.355 938.245L11.869 938.509C12.623 945.613 15.5728 951.389 20.7786 955.624L22.3562 953.684ZM14.355 938.245L16.8411 937.981L15.8036 928.206L13.3175 928.47L10.8315 928.734L11.869 938.509L14.355 938.245ZM13.3175 928.47L15.8036 928.206L14.7661 918.431L12.2801 918.695L9.79402 918.959L10.8315 928.734L13.3175 928.47ZM12.2801 918.695L14.7661 918.431C14.1156 912.302 14.8584 906.157 17.0241 899.971L14.6645 899.145L12.3049 898.319C9.908 905.166 9.0612 912.054 9.79402 918.959L12.2801 918.695ZM14.6645 899.145L17.0241 899.971L20.446 890.196L18.0864 889.37L15.7268 888.544L12.3049 898.319L14.6645 899.145ZM18.0864 889.37L20.446 890.196L23.8679 880.421L21.5083 879.595L19.1487 878.769L15.7268 888.544L18.0864 889.37ZM21.5083 879.595L23.8679 880.421C26.2241 873.69 27.5728 866.936 27.9008 860.166L25.4037 860.045L22.9067 859.924C22.6033 866.186 21.3551 872.466 19.1487 878.769L21.5083 879.595ZM25.4037 860.045L27.9008 860.166L28.3743 850.391L25.8772 850.27L23.3802 850.149L22.9067 859.924L25.4037 860.045ZM25.8772 850.27L28.3743 850.391L28.8478 840.616L26.3507 840.495L23.8537 840.374L23.3802 850.149L25.8772 850.27ZM26.3507 840.495L28.8478 840.616C29.1711 833.942 28.8688 827.27 27.9419 820.601L25.4657 820.945L22.9895 821.289C23.874 827.653 24.1618 834.014 23.8537 840.374L26.3507 840.495ZM25.4657 820.945L27.9419 820.601L26.5834 810.826L24.1072 811.17L21.631 811.514L22.9895 821.289L25.4657 820.945ZM24.1072 811.17L26.5834 810.826L25.2249 801.051L22.7487 801.395L20.2725 801.739L21.631 811.514L24.1072 811.17ZM22.7487 801.395L25.2249 801.051C24.3291 794.605 23.7156 788.16 23.3841 781.716L20.8874 781.845L18.3907 781.973C18.7296 788.563 19.357 795.151 20.2725 801.739L22.7487 801.395ZM20.8874 781.845L23.3841 781.716L22.8812 771.941L20.3845 772.07L17.8878 772.198L18.3907 781.973L20.8874 781.845ZM20.3845 772.07L22.8812 771.941L22.3784 762.166L19.8817 762.295L17.385 762.423L17.8878 772.198L20.3845 772.07ZM19.8817 762.295L22.3784 762.166C22.0454 755.694 21.8854 749.222 21.8982 742.75L19.3982 742.745L16.8982 742.74C16.8852 749.301 17.0475 755.862 17.385 762.423L19.8817 762.295ZM19.3982 742.745L21.8982 742.75L21.9175 732.975L19.4175 732.97L16.9175 732.965L16.8982 742.74L19.3982 742.745ZM19.4175 732.97L21.9175 732.975L21.9368 723.2L19.4368 723.195L16.9368 723.19L16.9175 732.965L19.4175 732.97ZM19.4368 723.195L21.9368 723.2C21.9497 716.663 21.8848 710.127 21.7421 703.59L19.2427 703.645L16.7433 703.699C16.8852 710.196 16.9497 716.693 16.9368 723.19L19.4368 723.195ZM19.2427 703.645L21.7421 703.59L21.5287 693.815L19.0293 693.87L16.5298 693.924L16.7433 703.699L19.2427 703.645ZM19.0293 693.87L21.5287 693.815L21.3152 684.04L18.8158 684.095L16.3164 684.149L16.5298 693.924L19.0293 693.87ZM18.8158 684.095L21.3152 684.04C21.1656 677.19 19.6732 670.368 16.8688 663.589L14.5587 664.545L12.2486 665.5C14.8357 671.755 16.1814 677.967 16.3164 684.149L18.8158 684.095ZM14.5587 664.545L16.8688 663.589L12.8252 653.814L10.5151 654.77L8.20492 655.725L12.2486 665.5L14.5587 664.545ZM10.5151 654.77L12.8252 653.814L8.78155 644.039L6.47141 644.995L4.16127 645.95L8.20492 655.725L10.5151 654.77ZM6.47141 644.995L8.78155 644.039C6.32898 638.11 6.25607 632.259 8.54676 626.348L6.21566 625.445L3.88457 624.541C1.12472 631.663 1.2223 638.846 4.16127 645.95L6.47141 644.995ZM6.21566 625.445L8.54676 626.348L12.3347 616.573L10.0036 615.67L7.67247 614.766L3.88457 624.541L6.21566 625.445ZM10.0036 615.67L12.3347 616.573L16.1226 606.798L13.7915 605.895L11.4604 604.991L7.67247 614.766L10.0036 615.67ZM13.7915 605.895L16.1226 606.798C18.7814 599.937 19.7688 593.022 19.0426 586.084L16.5562 586.345L14.0698 586.605C14.7079 592.701 13.8521 598.82 11.4604 604.991L13.7915 605.895ZM16.5562 586.345L19.0426 586.084L18.0194 576.31L15.533 576.57L13.0466 576.83L14.0698 586.605L16.5562 586.345ZM15.533 576.57L18.0194 576.31L16.9963 566.534L14.5098 566.795L12.0234 567.055L13.0466 576.83L15.533 576.57ZM14.5098 566.795L16.9963 566.534C16.3498 560.358 16.9454 554.173 18.7998 547.96L16.4042 547.245L14.0086 546.53C11.973 553.35 11.3057 560.198 12.0234 567.055L14.5098 566.795ZM16.4042 547.245L18.7998 547.96L21.7173 538.185L19.3217 537.47L16.9261 536.755L14.0086 546.53L16.4042 547.245ZM19.3217 537.47L21.7173 538.185L24.6348 528.41L22.2392 527.695L19.8436 526.98L16.9261 536.755L19.3217 537.47ZM22.2392 527.695L24.6348 528.41C26.7191 521.426 26.7183 514.413 24.6326 507.429L22.2371 508.145L19.8417 508.86C21.6487 514.91 21.6494 520.93 19.8436 526.98L22.2392 527.695ZM22.2371 508.145L24.6326 507.429L21.713 497.654L19.3175 498.37L16.9221 499.085L19.8417 508.86L22.2371 508.145ZM19.3175 498.37L21.713 497.654L18.7934 487.879L16.3979 488.595L14.0025 489.31L16.9221 499.085L19.3175 498.37ZM16.3979 488.595L18.7934 487.879C16.9795 481.806 16.9019 475.765 18.5542 469.702L16.1422 469.045L13.7301 468.387C11.8307 475.358 11.9235 482.35 14.0025 489.31L16.3979 488.595ZM16.1422 469.045L18.5542 469.702L21.2181 459.927L18.806 459.27L16.394 458.612L13.7301 468.387L16.1422 469.045ZM18.806 459.27L21.2181 459.927L23.8819 450.152L21.4699 449.495L19.0579 448.837L16.394 458.612L18.806 459.27ZM21.4699 449.495L23.8819 450.152C25.7503 443.296 26.1197 436.416 24.9782 429.536L22.5119 429.945L20.0457 430.354C21.0666 436.507 20.7413 442.66 19.0579 448.837L21.4699 449.495ZM22.5119 429.945L24.9782 429.536L23.3564 419.761L20.8901 420.17L18.4238 420.579L20.0457 430.354L22.5119 429.945ZM20.8901 420.17L23.3564 419.761L21.7346 409.986L19.2683 410.395L16.802 410.804L18.4238 420.579L20.8901 420.17ZM19.2683 410.395L21.7346 409.986C20.6178 403.254 18.608 396.542 15.7173 389.853L13.4224 390.845L11.1275 391.836C13.869 398.18 15.7565 404.502 16.802 410.804L19.2683 410.395ZM13.4224 390.845L15.7173 389.853L11.4932 380.078L9.19832 381.07L6.90343 382.061L11.1275 391.836L13.4224 390.845ZM9.19832 381.07L11.4932 380.078L7.26912 370.303L4.97423 371.295L2.67933 372.286L6.90343 382.061L9.19832 381.07ZM4.97423 371.295L7.26912 370.303C4.69717 364.351 4.48837 358.49 6.59885 352.586L4.24477 351.745L1.89069 350.903C-0.658352 358.033 -0.380845 365.205 2.67933 372.286L4.97423 371.295ZM4.24477 351.745L6.59885 352.586L10.0935 342.811L7.7394 341.97L5.38532 341.128L1.89069 350.903L4.24477 351.745ZM7.7394 341.97L10.0935 342.811L13.5881 333.036L11.234 332.195L8.87996 331.353L5.38532 341.128L7.7394 341.97ZM11.234 332.195L13.5881 333.036C16.056 326.133 16.706 319.181 15.5032 312.219L13.0397 312.645L10.5762 313.07C11.6253 319.142 11.0716 325.223 8.87996 331.353L11.234 332.195ZM13.0397 312.645L15.5032 312.219L13.8142 302.444L11.3507 302.87L8.88723 303.295L10.5762 313.07L13.0397 312.645ZM11.3507 302.87L13.8142 302.444L12.1252 292.669L9.66175 293.095L7.19825 293.52L8.88723 303.295L11.3507 302.87ZM9.66175 293.095L12.1252 292.669C11.0066 286.195 10.0599 279.721 9.28508 273.248L6.8028 273.545L4.32052 273.842C5.10568 280.402 6.06495 286.961 7.19825 293.52L9.66175 293.095ZM6.8028 273.545L9.28508 273.248L8.11511 263.473L5.63283 263.77L3.15055 264.067L4.32052 273.842L6.8028 273.545ZM5.63283 263.77L8.11511 263.473L6.94514 253.698L4.46286 253.995L1.98058 254.292L3.15055 264.067L5.63283 263.77ZM4.46286 253.995L6.94514 253.698C6.22412 247.674 7.21357 241.614 9.98767 235.474L7.70942 234.445L5.43117 233.415C2.31655 240.309 1.14163 247.283 1.98058 254.292L4.46286 253.995ZM7.70942 234.445L9.98767 235.474L14.4042 225.699L12.1259 224.67L9.84769 223.64L5.43117 233.415L7.70942 234.445ZM12.1259 224.67L14.4042 225.699L18.8207 215.924L16.5425 214.895L14.2642 213.865L9.84769 223.64L12.1259 224.67ZM16.5425 214.895L18.8207 215.924C22.0707 208.731 21.9815 201.446 18.574 194.272L16.3158 195.345L14.0576 196.417C16.8411 202.277 16.903 208.025 14.2642 213.865L16.5425 214.895ZM16.3158 195.345L18.574 194.272L13.9308 184.497L11.6726 185.57L9.41445 186.642L14.0576 196.417L16.3158 195.345ZM11.6726 185.57L13.9308 184.497L9.28766 174.722L7.02947 175.795L4.77128 176.867L9.41445 186.642L11.6726 185.57ZM7.02947 175.795L9.28766 174.722C6.33802 168.512 4.92997 162.371 5.00267 156.275L2.50284 156.245L0.00302219 156.215C-0.0796947 163.152 1.53001 170.044 4.77128 176.867L7.02947 175.795ZM2.50284 156.245L5.00267 156.275L5.11923 146.5L2.6194 146.47L0.11958 146.44L0.00302219 156.215L2.50284 156.245ZM2.6194 146.47L5.11923 146.5L5.23578 136.725L2.73596 136.695L0.236138 136.665L0.11958 146.44L2.6194 146.47ZM2.73596 136.695L5.23578 136.725C5.3119 130.341 5.89659 123.956 6.99088 117.567L4.52676 117.145L2.06264 116.723C0.924605 123.367 0.315434 130.015 0.236138 136.665L2.73596 136.695ZM4.52676 117.145L6.99088 117.567L8.66512 107.792L6.20101 107.37L3.73689 106.948L2.06264 116.723L4.52676 117.145ZM6.20101 107.37L8.66512 107.792L10.3394 98.0168L7.87525 97.5947L5.41113 97.1727L3.73689 106.948L6.20101 107.37ZM7.87525 97.5947L10.3394 98.0168C11.4529 91.5156 12.6295 85.0144 13.8692 78.513L11.4135 78.0448L8.95772 77.5765C7.71215 84.1085 6.52995 90.6405 5.41113 97.1727L7.87525 97.5947ZM11.4135 78.0448L13.8692 78.513L15.7332 68.738L13.2775 68.2697L10.8217 67.8015L8.95772 77.5765L11.4135 78.0448ZM13.2775 68.2697L15.7332 68.738L17.5972 58.963L15.1414 58.4947L12.6857 58.0265L10.8217 67.8015L13.2775 68.2697ZM15.1414 58.4947L17.5972 58.963C18.8927 52.1689 19.0019 45.4641 17.9125 38.8627L15.4458 39.2698L12.9792 39.6769C13.9692 45.6754 13.8754 51.7873 12.6857 58.0265L15.1414 58.4947ZM15.4458 39.2698L17.9125 38.8627L16.3529 29.4128L13.8863 29.8198L11.4196 30.2269L12.9792 39.6769L15.4458 39.2698ZM13.8863 29.8198L16.3529 29.4128L14.7934 19.9628L12.3267 20.3699L9.86008 20.777L11.4196 30.2269L13.8863 29.8198ZM12.3267 20.3699L14.7934 19.9628C14.2752 16.8232 13.9429 14.5204 13.786 13.0221C13.7057 12.2559 13.6812 11.7877 13.685 11.5504C13.6873 11.4032 13.6994 11.495 13.6492 11.6904C13.6276 11.7743 13.5429 12.0939 13.2841 12.4437C12.9806 12.8538 12.3281 13.4199 11.3372 13.4199V10.9199V8.41992C10.2988 8.41992 9.60431 9.01064 9.26449 9.46997C8.96926 9.86903 8.85369 10.2624 8.80679 10.4448C8.7059 10.837 8.68953 11.2241 8.6856 11.4707C8.67683 12.0208 8.72846 12.7339 8.81315 13.5428C8.98609 15.1944 9.33852 17.6166 9.86008 20.777L12.3267 20.3699ZM11.3372 10.9199V13.4199H11.9073V10.9199V8.41992H11.3372V10.9199ZM11.9073 10.9199V13.4199H12.4773V10.9199V8.41992H11.9073V10.9199ZM12.4773 10.9199V13.4199C12.7917 13.4199 13.1137 13.358 13.2151 13.3393C13.3999 13.3054 13.6234 13.2589 13.8749 13.2036C14.3814 13.0921 15.0734 12.9289 15.9419 12.7167C17.6826 12.2915 20.1867 11.6564 23.4481 10.8132L22.8224 8.39282L22.1966 5.9724C18.9414 6.81397 16.463 7.44241 14.7553 7.85956C13.8996 8.0686 13.251 8.22124 12.8004 8.32038C12.5733 8.37035 12.4142 8.40281 12.3122 8.42153C12.1269 8.45556 12.258 8.41992 12.4773 8.41992V10.9199ZM22.8224 8.39282L23.4481 10.8132L33.2231 8.28614L32.5974 5.86571L31.9716 3.44529L22.1966 5.9724L22.8224 8.39282Z" fill="#E67EA1"/>
</svg>
