<svg width="1129" height="626" viewBox="0 0 1129 626" fill="none" xmlns="http://www.w3.org/2000/svg">
<path d="M1088.61 214.254L1075.96 197.498C1056.41 171.6 1059.48 135.144 1083.07 112.872C1108.71 88.6723 1109.79 48.2419 1085.48 22.7065L1064.48 0.64037C1064.09 0.231454 1063.55 0 1062.98 0H630.368H41.8242C41.8242 0 50.8667 26.5 43.3667 60.5C40.651 72.8113 35.2156 85.0708 28.7063 96.4286C8.00237 132.554 -0.580482 177.499 20.0586 213.661C34.6616 239.247 35.8238 270.359 23.1704 296.964L13.0861 318.167C-4.72796 355.622 -4.33587 399.187 14.1494 436.316L18.9173 445.892C34.7475 477.688 73.4201 497.665 81.5661 532.237C83.578 540.775 81.3135 550.293 71.117 560.25C34.8676 595.646 41.867 625.5 41.867 625.5H143.367H666.368H1061.37C1061.37 625.5 1041.62 584.5 1090.12 568.5C1108.76 562.348 1118.9 552.502 1124.32 542.711C1134.64 524.053 1123.56 502.363 1111.86 484.536L1078.72 434.04C1056.61 400.346 1058.78 356.232 1084.08 324.865L1086.88 321.397C1111.96 290.306 1112.67 246.138 1088.61 214.254Z" fill="#51662E"/>
</svg>
