<svg width="996" height="2063" viewBox="0 0 996 2063" fill="none" xmlns="http://www.w3.org/2000/svg">
<path d="M3.47129 130.012C-0.207071 96.0689 4.90472 88.6669 20.0639 59.0966C36.9934 26.073 -14.0694 0.000431016 20.0639 0.000217237C54.1972 3.45836e-06 151.856 0.000107594 151.856 0.000107594L230.553 0.000217237L347.649 0L463.797 0.000217237L586.108 0L699.412 0.000217237L821.723 0L878.326 7.2858e-05C940.274 0.000152596 990.493 50.2192 990.493 112.168C990.493 132.457 986.456 152.543 978.616 171.256L964.034 206.06C946.869 247.03 949.214 294.057 969.948 333.342C992.083 375.284 992.654 426.204 971.215 468.506C949.813 510.732 950.234 561.027 972.579 602.761L982.264 620.85C1001.62 657.006 999.436 700.896 976.581 734.95C952.418 770.954 951.463 817.74 974.139 854.698L975.864 857.511C998.974 895.178 998.258 942.802 974.025 979.757C951.15 1014.64 949.133 1059.23 968.766 1096.03L979.751 1116.63C1000.76 1156.02 999.096 1203.64 975.379 1241.47C951.602 1279.39 949.99 1327.15 971.154 1366.59L972.733 1369.54C993.242 1407.75 993.401 1453.67 973.157 1492.03L971.326 1495.5C949.941 1536.02 951.065 1584.72 974.296 1624.21L975.939 1627C999.26 1666.65 999.26 1715.81 975.939 1755.46L972.711 1760.95C950.722 1798.32 951.379 1844.84 974.416 1881.58C998.396 1919.82 998.052 1968.5 973.534 2006.4L972.308 2008.3C950.245 2042.4 912.395 2063 871.774 2063H91.0895C43.8686 2063 12.6406 2013.94 32.6271 1971.16C40.6007 1954.09 40.7173 1934.39 32.9463 1917.23L16.8023 1881.58C-0.456352 1843.47 -0.96728 1799.87 15.3934 1761.36L17.903 1755.45C35.3399 1714.41 35.3399 1668.05 17.903 1627.01L16.8146 1624.44C-0.558874 1583.55 -1.31396 1537.5 14.7096 1496.06L22.3786 1476.23C36.9281 1438.6 35.1982 1396.62 17.6021 1360.32C-0.164105 1323.67 -1.74852 1281.25 13.2342 1243.37L20.1931 1225.78C36.1892 1185.34 35.1854 1139.81 17.6937 1100C-0.0593127 1059.59 -0.605229 1013.29 16.4751 972.593L20.9192 962.004C36.3207 925.307 34.8811 883.706 16.9797 848.161C-0.369787 813.712 -2.2812 773.518 11.7209 737.578L21.6392 712.12C36.6622 673.56 35.0212 630.496 17.1071 593.191C-0.396873 556.74 -2.38076 514.751 11.6085 476.812L26.0982 437.515C38.2992 404.426 36.5353 367.799 21.2109 336.036L7.14766 306.886C-3.68433 284.434 -2.12283 257.974 11.2748 236.952C29.8623 207.787 14.1576 170.186 4.81204 136.887C4.18246 134.644 3.72464 132.35 3.47129 130.012Z" fill="#51662E"/>
</svg>
