<svg width="1129" height="2063" viewBox="0 0 1129 2063" fill="none" xmlns="http://www.w3.org/2000/svg">
<g transform="translate(51.025, 0)">
<path d="M101.711 2063H940.225C978.197 2063 1013.92 2045 1036.52 2014.49L1042.59 2006.29C1069.96 1969.33 1070.34 1918.93 1043.52 1881.58C1017.72 1845.63 1017 1797.43 1041.72 1760.73L1045.26 1755.46C1071.42 1716.63 1071.42 1665.83 1045.26 1627L1044.21 1625.43C1017.85 1586.3 1017.9 1535.09 1044.33 1496.01L1045.71 1493.98C1071.54 1455.79 1071.01 1405.2 1044.89 1367.22C1018.51 1328.86 1018.69 1277.6 1045.84 1239.78C1071.71 1203.74 1073.5 1155.71 1050.37 1117.84L1037.46 1096.7C1015.2 1060.26 1017.42 1013.92 1043.06 979.772C1070.17 943.662 1070.96 894.204 1045 857.255L1043.44 855.037C1017.95 818.746 1018.99 770.1 1046.01 734.934C1071.62 701.612 1074.02 655.951 1052.06 620.123L1041.74 603.294C1016.6 562.284 1017.28 510.474 1043.48 470.133L1046.15 466.027C1071.84 426.479 1071.36 375.398 1044.94 336.336C1018.14 296.709 1018.07 244.781 1044.76 205.083L1053.27 192.427C1075.69 159.094 1085.04 115.271 1059.17 84.5482C1054.86 79.4367 1050.01 74.4965 1044.56 70.0001C1011.84 43 1000.84 0 1000.84 0H888.844L766.533 0.000217438L653.229 0L530.918 0.000217438L414.77 0L297.673 0.000217438L218.977 0.000106812L0.34454 0.000217438C0.34454 0.000217438 -5.18698 54.2363 28.0779 91.8681C46.0653 112.217 52.709 137.421 55.0174 156.279C57.2165 174.245 50.7449 191.686 41.0171 206.95L39.2904 209.659C15.0796 247.648 12.2579 295.462 31.8323 336.036C47.1567 367.799 48.9206 404.426 36.7196 437.515L22.2299 476.812C8.24064 514.751 10.2245 556.74 27.7285 593.191C45.6426 630.496 47.2836 673.56 32.2606 712.12L22.3423 737.578C8.34019 773.518 10.2516 813.712 27.6011 848.161C45.5025 883.706 46.9422 925.307 31.5406 962.005L27.0965 972.594C10.0162 1013.29 10.5621 1059.59 28.3151 1100C45.8068 1139.81 46.8106 1185.34 30.8145 1225.78L23.8556 1243.37C8.87287 1281.25 10.4573 1323.67 28.2235 1360.32C45.8196 1396.62 47.5495 1438.6 33 1476.23L25.331 1496.06C9.30744 1537.5 10.0625 1583.55 27.436 1624.44L28.5244 1627.01C45.9613 1668.05 45.9613 1714.41 28.5244 1755.45L26.0148 1761.36C9.65412 1799.87 10.165 1843.47 27.4237 1881.58L43.5678 1917.23C51.3387 1934.39 51.2221 1954.09 43.2485 1971.16C23.262 2013.94 54.49 2063 101.711 2063Z" fill="#51662E"/>
</g>
</svg>
